<svg width="50" height="47" viewBox="0 0 50 47" fill="none" xmlns="http://www.w3.org/2000/svg">
<rect x="0.739258" width="49.2608" height="47" rx="12" fill="#FFF3F6"/>
<path d="M15.6667 22.6799C15.6667 22.237 15.9959 21.8709 16.423 21.8129L16.5417 21.8049H34.0417C34.5249 21.8049 34.9167 22.1967 34.9167 22.6799C34.9167 23.1229 34.5875 23.489 34.1604 23.5469L34.0417 23.5549H16.5417C16.0584 23.5549 15.6667 23.1632 15.6667 22.6799Z" fill="#D02C34"/>
<path d="M26.3662 16.2716C26.0238 15.9306 26.0226 15.3766 26.3635 15.0342C26.6735 14.7229 27.1596 14.6936 27.5026 14.947L27.601 15.0315L34.6593 22.0595C34.9715 22.3704 34.9999 22.8582 34.7445 23.2013L34.6594 23.2996L27.601 30.3287C27.2586 30.6697 26.7046 30.6686 26.3636 30.3262C26.0536 30.0149 26.0263 29.5287 26.2812 29.1867L26.3661 29.0887L32.8015 22.6792L26.3662 16.2716Z" fill="#D02C34"/>
</svg>
