<svg width="50" height="47" viewBox="0 0 50 47" fill="none" xmlns="http://www.w3.org/2000/svg">
<rect width="49.2608" height="47" rx="12" fill="#FFF3F6"/>
<path d="M34.3333 22.6799C34.3333 22.237 34.0041 21.8709 33.577 21.8129L33.4583 21.8049H15.9583C15.4751 21.8049 15.0833 22.1967 15.0833 22.6799C15.0833 23.1229 15.4125 23.489 15.8396 23.5469L15.9583 23.5549H33.4583C33.9416 23.5549 34.3333 23.1632 34.3333 22.6799Z" fill="#D02C34"/>
<path d="M23.6338 16.2716C23.9762 15.9306 23.9774 15.3766 23.6365 15.0342C23.3265 14.7229 22.8404 14.6936 22.4974 14.947L22.399 15.0315L15.3407 22.0595C15.0285 22.3704 15.0001 22.8582 15.2555 23.2013L15.3406 23.2996L22.399 30.3287C22.7414 30.6697 23.2954 30.6686 23.6364 30.3262C23.9464 30.0149 23.9737 29.5287 23.7188 29.1867L23.6339 29.0887L17.1985 22.6792L23.6338 16.2716Z" fill="#D02C34"/>
</svg>
