<svg width="30" height="30" viewBox="0 0 30 30" fill="none" xmlns="http://www.w3.org/2000/svg">
<path d="M14.9752 0.00411696C14.9752 0.00411696 23.8019 -0.39049 28.4814 8.44706H14.2242C14.2242 8.44706 11.5337 8.36074 9.23521 11.6121C8.57497 12.9768 7.8652 14.3826 8.66162 17.1531C7.51444 15.217 2.57084 6.64256 2.57084 6.64256C2.57084 6.64256 6.05777 0.353509 14.9752 0.00411696Z" fill="#EF3F36"/>
<path d="M28.0234 22.4392C28.0234 22.4392 23.9505 30.2532 13.9312 29.8669C15.1692 27.7335 21.0619 17.5683 21.0619 17.5683C21.0619 17.5683 22.4856 15.2911 20.8061 11.682C19.9519 10.4283 19.0812 9.1171 16.2751 8.41831C18.5323 8.39776 28.4567 8.41831 28.4567 8.41831C28.4567 8.41831 32.1747 14.5717 28.0234 22.4392Z" fill="#FCD900"/>
<path d="M1.989 22.5009C1.989 22.5009 -2.76891 15.0814 2.57909 6.63025C3.81293 8.76359 9.70564 18.9288 9.70564 18.9288C9.70564 18.9288 10.9766 21.2965 14.9505 21.65C16.4649 21.539 18.0413 21.4445 20.055 19.3769C18.945 21.3335 13.9642 29.8833 13.9642 29.8833C13.9642 29.8833 6.75103 30.0148 1.989 22.5009Z" fill="#61BC5B"/>
<path d="M13.9271 29.9408L15.9326 21.6047C15.9326 21.6047 18.1362 21.4321 19.9849 19.4138C18.8377 21.4238 13.9271 29.9408 13.9271 29.9408Z" fill="#5AB055"/>
<path d="M8.25723 15.0649C8.25723 11.3901 11.249 8.41003 14.9381 8.41003C18.6272 8.41003 21.619 11.3901 21.619 15.0649C21.619 18.7397 18.6272 21.7198 14.9381 21.7198C11.249 21.7157 8.25723 18.7397 8.25723 15.0649Z" fill="white"/>
<path d="M9.37552 15.065C9.37552 12.0068 11.8638 9.52405 14.9381 9.52405C18.0083 9.52405 20.5007 12.0027 20.5007 15.065C20.5007 18.1232 18.0124 20.6059 14.9381 20.6059C11.868 20.6059 9.37552 18.1232 9.37552 15.065Z" fill="url(#paint0_linear_1_1456)"/>
<path d="M28.4525 8.42235L20.1953 10.8352C20.1953 10.8352 18.9491 9.01426 16.271 8.42235C18.5942 8.41002 28.4525 8.42235 28.4525 8.42235Z" fill="#EACA05"/>
<path d="M8.50069 16.8489C7.34113 14.8471 2.57084 6.64258 2.57084 6.64258L8.68638 12.6686C8.68638 12.6686 8.05915 13.9551 8.29436 15.7966L8.50069 16.8489Z" fill="#DF3A32"/>
<defs>
<linearGradient id="paint0_linear_1_1456" x1="14.9378" y1="9.60226" x2="14.9378" y2="20.2724" gradientUnits="userSpaceOnUse">
<stop stop-color="#86BBE5"/>
<stop offset="1" stop-color="#1072BA"/>
</linearGradient>
</defs>
</svg>
