<svg width="1440" height="299" viewBox="0 0 1440 299" fill="none" xmlns="http://www.w3.org/2000/svg">
<rect width="1440" height="299" fill="url(#paint0_linear_164_219)"/>
<mask id="mask0_164_219" style="mask-type:alpha" maskUnits="userSpaceOnUse" x="800" y="0" width="640" height="299">
<rect x="800" width="640" height="299" fill="black"/>
</mask>
<g mask="url(#mask0_164_219)">
<path opacity="0.0144928" d="M1270.7 682.043C1260.71 684.343 1250.4 679.755 1245.43 670.793L1087.39 386.108C1084.45 380.808 1083.72 374.56 1085.36 368.724L1211.41 -80.0062C1212.7 -84.5958 1215.39 -88.6713 1219.09 -91.6692L1536.49 -348.373C1543.22 -353.809 1552.42 -355.017 1560.31 -351.502L1819.71 -236.01C1827.61 -232.494 1832.87 -224.848 1833.32 -216.216L1854.94 191.427C1855.19 196.188 1853.96 200.909 1851.41 204.938L1602.28 598.873C1599.04 603.997 1593.91 607.634 1588 608.994L1270.7 682.043Z" stroke="url(#paint1_linear_164_219)" stroke-width="4"/>
<path opacity="0.0289855" d="M1320.49 693.843C1310.66 696.639 1300.16 692.609 1294.73 683.951L1122.81 410.181C1119.58 405.04 1118.52 398.831 1119.85 392.908L1221.09 -57.6749C1222.13 -62.3403 1224.61 -66.5628 1228.17 -69.7554L1529.45 -339.962C1535.88 -345.726 1544.99 -347.406 1553.05 -344.312L1816.56 -243.16C1824.62 -240.066 1830.27 -232.72 1831.19 -224.136L1874.28 178.264C1874.79 183.018 1873.81 187.813 1871.46 191.981L1645.2 594.572C1642.23 599.864 1637.28 603.766 1631.44 605.427L1320.49 693.843Z" stroke="url(#paint2_linear_164_219)" stroke-width="4"/>
<path opacity="0.0434783" d="M1370.31 704.043C1360.66 707.325 1350 703.861 1344.12 695.532L1159.02 433.343C1155.52 428.376 1154.12 422.223 1155.14 416.228L1231.72 -34.8497C1232.52 -39.5782 1234.78 -43.9375 1238.19 -47.3176L1522.81 -330.051C1528.93 -336.127 1537.93 -338.272 1546.13 -335.608L1812.97 -248.907C1821.17 -246.243 1827.19 -239.217 1828.56 -230.707L1892.64 165.329C1893.41 170.064 1892.68 174.919 1890.55 179.217L1687.37 589.16C1684.67 594.607 1679.92 598.764 1674.16 600.722L1370.31 704.043Z" stroke="url(#paint3_linear_164_219)" stroke-width="4"/>
<path opacity="0.057971" d="M1420.06 712.657C1410.61 716.414 1399.81 713.522 1393.51 705.545L1195.98 455.558C1192.21 450.781 1190.48 444.701 1191.18 438.653L1243.33 -11.5857C1243.89 -16.3648 1245.92 -20.85 1249.16 -24.41L1516.65 -318.676C1522.44 -325.047 1531.31 -327.65 1539.62 -325.422L1809 -253.242C1817.32 -251.013 1823.69 -244.327 1825.52 -235.914L1910.05 152.674C1911.07 157.375 1910.59 162.278 1908.68 166.694L1728.72 582.687C1726.31 588.275 1721.77 592.677 1716.11 594.927L1420.06 712.657Z" stroke="url(#paint4_linear_164_219)" stroke-width="4"/>
<path opacity="0.0724638" d="M1469.65 719.706C1460.43 723.925 1449.53 721.609 1442.83 714.005L1233.63 476.798C1229.6 472.224 1227.54 466.236 1227.92 460.149L1255.94 12.0604C1256.25 7.2437 1258.05 2.64376 1261.11 -1.08817L1511.05 -305.876C1516.5 -312.525 1525.2 -315.577 1533.61 -313.79L1804.75 -256.158C1813.16 -254.37 1819.87 -248.041 1822.15 -239.75L1926.51 140.345C1927.78 144.999 1927.57 149.937 1925.88 154.46L1769.22 575.206C1767.1 580.921 1762.79 585.557 1757.24 588.095L1469.65 719.706Z" stroke="url(#paint5_linear_164_219)" stroke-width="4"/>
<path opacity="0.0869565" d="M1519 725.211C1510.03 729.878 1499.07 728.142 1491.98 720.931L1271.9 497.033C1267.62 492.677 1265.25 486.798 1265.31 480.69L1269.57 36.0318C1269.61 31.1905 1271.19 26.4873 1274.06 22.5921L1506.07 -291.696C1511.17 -298.604 1519.7 -302.096 1528.18 -300.753L1800.29 -257.654C1808.77 -256.31 1815.8 -250.356 1818.51 -242.21L1942.05 128.391C1943.58 132.984 1943.62 137.943 1942.17 142.562L1808.82 566.773C1806.98 572.6 1802.91 577.459 1797.49 580.278L1519 725.211Z" stroke="url(#paint6_linear_164_219)" stroke-width="4"/>
<path opacity="0.101449" d="M1568.03 729.202C1559.34 734.303 1548.33 733.146 1540.89 726.349L1310.75 516.242C1306.23 512.118 1303.55 506.363 1303.28 500.252L1284.22 60.2716C1284.01 55.4191 1285.34 50.6244 1288.02 46.575L1501.8 -276.181C1506.54 -283.329 1514.86 -287.25 1523.38 -286.354L1795.71 -257.732C1804.23 -256.835 1811.55 -251.271 1814.7 -243.294L1956.71 116.857C1958.49 121.375 1958.79 126.342 1957.58 131.045L1847.45 557.447C1845.92 563.37 1842.1 568.439 1836.82 571.534L1568.03 729.202Z" stroke="url(#paint7_linear_164_219)" stroke-width="4"/>
<path opacity="0.115942" d="M1616.66 731.71C1608.26 737.228 1597.25 736.651 1589.47 730.285L1350.11 534.402C1345.37 530.522 1342.37 524.91 1341.78 518.812L1299.89 84.7215C1299.43 79.8709 1300.51 74.997 1302.99 70.8028L1498.3 -259.384C1502.66 -266.753 1510.75 -271.091 1519.3 -270.643L1791.07 -256.4C1799.62 -255.952 1807.21 -250.792 1810.78 -243.008L1970.5 105.786C1972.53 110.216 1973.1 115.177 1972.13 119.952L1885.1 547.286C1883.87 553.289 1880.31 558.557 1875.18 561.92L1616.66 731.71Z" stroke="url(#paint8_linear_164_219)" stroke-width="4"/>
<path opacity="0.130435" d="M1664.81 732.773C1656.72 738.691 1645.73 738.691 1637.65 732.773L1389.92 551.498C1384.96 547.874 1381.66 542.422 1380.75 536.353L1316.61 109.324C1315.88 104.489 1316.72 99.5484 1318.99 95.2191L1495.63 -241.359C1499.61 -248.929 1507.45 -253.67 1516 -253.67L1786.46 -253.67C1795 -253.67 1802.85 -248.929 1806.82 -241.359L1983.47 95.2191C1985.74 99.5484 1986.57 104.489 1985.85 109.324L1921.7 536.353C1920.79 542.422 1917.49 547.874 1912.54 551.498L1664.81 732.773Z" stroke="url(#paint9_linear_164_219)" stroke-width="4"/>
<path opacity="0.144928" d="M1712.4 732.431C1704.65 738.731 1693.71 739.304 1685.34 733.849L1430.11 567.515C1424.96 564.159 1421.37 558.882 1420.14 552.861L1334.36 134.022C1333.37 129.216 1333.95 124.221 1336.01 119.767L1493.86 -222.163C1497.44 -229.913 1505.02 -235.044 1513.54 -235.491L1781.94 -249.558C1790.47 -250.004 1798.54 -245.693 1802.91 -238.359L1995.64 85.1976C1998.15 89.4123 1999.25 94.3194 1998.77 99.202L1957.24 524.712C1956.64 530.83 1953.62 536.453 1948.85 540.329L1712.4 732.431Z" stroke="url(#paint10_linear_164_219)" stroke-width="4"/>
<path opacity="0.15942" d="M1759.37 730.728C1751.97 737.392 1741.12 738.532 1732.49 733.554L1470.64 582.444C1465.3 579.367 1461.43 574.281 1459.88 568.323L1353.14 158.759C1351.9 153.995 1352.22 148.959 1354.05 144.391L1493.04 -201.857C1496.21 -209.766 1503.5 -215.272 1511.98 -216.163L1777.61 -244.081C1786.08 -244.972 1794.36 -241.103 1799.11 -234.026L2007.05 75.7586C2009.79 79.8458 2011.15 84.7055 2010.92 89.6229L1991.68 512.429C1991.4 518.579 1988.66 524.36 1984.09 528.478L1759.37 730.728Z" stroke="url(#paint11_linear_164_219)" stroke-width="4"/>
<path opacity="0.173913" d="M1805.65 727.713C1798.61 734.72 1787.87 736.421 1779.02 731.931L1511.43 596.277C1505.93 593.489 1501.78 588.609 1499.91 582.732L1372.96 183.476C1371.46 178.768 1371.52 173.704 1373.12 169.032L1493.22 -180.504C1495.99 -188.552 1502.97 -194.416 1511.38 -195.747L1773.52 -237.266C1781.92 -238.597 1790.38 -235.179 1795.49 -228.379L2017.73 66.9371C2020.7 70.8841 2022.32 75.6825 2022.35 80.622L2024.99 499.569C2025.03 505.735 2022.59 511.659 2018.22 516.01L1805.65 727.713Z" stroke="url(#paint12_linear_164_219)" stroke-width="4"/>
<path opacity="0.188406" d="M1851.16 723.437C1844.51 730.767 1833.91 733.019 1824.86 729.028L1552.43 609.012C1546.78 606.522 1542.37 601.862 1540.18 596.084L1393.79 208.118C1392.04 203.48 1391.84 198.401 1393.21 193.637L1494.46 -158.17C1496.81 -166.335 1503.47 -172.54 1511.78 -174.306L1769.75 -229.139C1778.06 -230.905 1786.67 -227.946 1792.13 -221.443L2027.72 58.767C2030.91 62.5613 2032.79 67.2847 2033.08 72.2334L2057.15 486.2C2057.51 492.366 2055.37 498.417 2051.22 502.991L1851.16 723.437Z" stroke="url(#paint13_linear_164_219)" stroke-width="4"/>
<path opacity="0.202899" d="M1895.85 717.955C1889.6 725.586 1879.17 728.379 1869.94 724.897L1593.58 620.647C1587.79 618.464 1583.12 614.04 1580.64 608.375L1415.64 232.63C1413.64 228.075 1413.17 222.994 1414.3 218.15L1496.8 -134.923C1498.73 -143.184 1505.05 -149.711 1513.24 -151.907L1766.36 -219.73C1774.56 -221.926 1783.29 -219.433 1789.09 -213.244L2037.07 51.2791C2040.48 54.9086 2042.61 59.5434 2043.15 64.4882L2088.14 472.391C2088.81 478.54 2086.99 484.704 2083.07 489.49L1895.85 717.955Z" stroke="url(#paint14_linear_164_219)" stroke-width="4"/>
<path opacity="0.217391" d="M1939.66 711.326C1933.82 719.236 1923.6 722.558 1914.22 719.592L1634.81 631.187C1628.9 629.318 1624 625.143 1621.21 619.608L1438.48 256.958C1436.24 252.499 1435.5 247.43 1436.39 242.517L1500.27 -110.833C1501.78 -119.167 1507.74 -125.998 1515.8 -128.615L1763.43 -209.075C1771.48 -211.692 1780.32 -209.671 1786.44 -203.814L2045.82 44.5027C2049.42 47.9555 2051.81 52.4882 2052.61 57.4162L2117.94 458.211C2118.94 464.327 2117.43 470.588 2113.74 475.573L1939.66 711.326Z" stroke="url(#paint15_linear_164_219)" stroke-width="4"/>
<path opacity="0.231884" d="M1982.54 703.608C1977.12 711.775 1967.12 715.613 1957.63 713.168L1676.07 640.638C1670.06 639.089 1664.93 635.176 1661.85 629.788L1462.31 281.048C1459.82 276.698 1458.82 271.655 1459.46 266.684L1504.92 -85.9716C1506.01 -94.3569 1511.6 -101.473 1519.49 -104.503L1761.01 -197.211C1768.9 -200.241 1777.82 -198.696 1784.23 -193.188L2053.99 38.4633C2057.8 41.7281 2060.43 46.1455 2061.49 51.0433L2146.55 443.728C2147.87 449.796 2146.67 456.137 2143.24 461.31L1982.54 703.608Z" stroke="url(#paint16_linear_164_219)" stroke-width="4"/>
<path opacity="0.246377" d="M2024.42 694.866C2019.44 703.267 2009.7 707.605 2000.12 705.686L1717.31 649.009C1711.21 647.787 1705.87 644.148 1702.5 638.921L1487.09 304.848C1484.36 300.621 1483.1 295.616 1483.49 290.601L1510.78 -60.4119C1511.44 -68.8267 1516.65 -76.2072 1524.36 -79.6401L1759.16 -184.179C1766.87 -187.612 1775.84 -186.546 1782.53 -181.402L2061.65 33.1851C2065.64 36.251 2068.51 40.5397 2069.83 45.3943L2173.96 429.014C2175.59 435.015 2174.72 441.421 2171.54 446.77L2024.42 694.866Z" stroke="url(#paint17_linear_164_219)" stroke-width="4"/>
<path opacity="0.26087" d="M2065.28 685.165C2060.74 693.776 2051.28 698.599 2041.64 697.208L1758.45 656.313C1752.29 655.423 1746.75 652.069 1743.1 647.02L1512.81 328.308C1509.85 324.216 1508.32 319.263 1508.46 314.216L1517.88 -34.2283C1518.11 -42.6507 1522.92 -50.2744 1530.43 -54.0995L1757.94 -170.023C1765.45 -173.848 1774.45 -173.262 1781.4 -168.496L2068.83 28.6897C2073 31.5461 2076.1 35.6933 2077.68 40.4915L2200.16 414.136C2202.1 420.056 2201.55 426.509 2198.65 432.021L2065.28 685.165Z" stroke="url(#paint18_linear_164_219)" stroke-width="4"/>
<path opacity="0.275362" d="M2105.06 674.572C2100.98 683.369 2091.81 688.659 2082.15 687.797L1799.46 662.565C1793.24 662.01 1787.52 658.954 1783.6 654.096L1539.43 351.379C1536.25 347.433 1534.46 342.547 1534.34 337.48L1526.24 -7.49654C1526.04 -15.9047 1530.45 -23.7503 1537.73 -27.9555L1757.41 -154.79C1764.7 -158.996 1773.7 -158.89 1780.88 -154.515L2075.58 24.995C2079.91 27.6319 2083.25 31.6251 2085.07 36.3537L2225.15 399.164C2227.4 404.986 2227.19 411.471 2224.56 417.132L2105.06 674.572Z" stroke="url(#paint19_linear_164_219)" stroke-width="4"/>
<path opacity="0.289855" d="M2143.73 663.156C2140.11 672.115 2131.27 677.853 2121.61 677.519L1840.26 667.784C1834.01 667.568 1828.12 664.818 1823.95 660.167L1566.95 374.013C1563.55 370.227 1561.5 365.42 1561.12 360.345L1535.87 19.7076C1535.25 11.3354 1539.24 3.2901 1546.28 -1.28225L1757.62 -138.53C1764.66 -143.102 1773.64 -143.475 1781.03 -139.503L2081.95 22.1182C2086.43 24.526 2089.99 28.3527 2092.06 32.9989L2248.95 384.166C2251.5 389.875 2251.62 396.375 2249.27 402.171L2143.73 663.156Z" stroke="url(#paint20_linear_164_219)" stroke-width="4"/>
<path opacity="0.304348" d="M2181.25 650.988C2178.09 660.084 2169.6 666.251 2159.98 666.443L1880.82 671.992C1874.56 672.116 1868.51 669.682 1864.09 665.25L1595.32 396.166C1591.7 392.551 1589.4 387.837 1588.77 382.767L1546.79 47.3079C1545.75 38.9931 1549.32 30.7705 1556.1 25.845L1758.61 -121.292C1765.39 -126.218 1774.32 -127.067 1781.9 -123.508L2087.97 20.0726C2092.6 22.2425 2096.37 25.8907 2098.69 30.4417L2271.55 369.211C2274.4 374.79 2274.85 381.289 2272.79 387.206L2181.25 650.988Z" stroke="url(#paint21_linear_164_219)" stroke-width="4"/>
<path opacity="0.318841" d="M2217.59 638.14C2214.91 647.349 2206.79 653.924 2197.22 654.636L1921.07 675.212C1914.82 675.678 1908.64 673.567 1903.98 669.369L1624.5 417.793C1620.69 414.361 1618.13 409.752 1617.24 404.701L1559.02 75.2275C1557.57 66.9913 1560.7 58.6143 1567.2 53.3508L1760.44 -103.133C1766.94 -108.396 1775.78 -109.716 1783.54 -106.58L2093.7 18.8696C2098.46 20.793 2102.44 24.2511 2105 28.694L2292.97 354.365C2296.11 359.8 2296.89 366.28 2295.13 372.303L2217.59 638.14Z" stroke="url(#paint22_linear_164_219)" stroke-width="4"/>
<path opacity="0.333333" d="M2252.73 624.685C2250.52 633.982 2242.79 640.942 2233.32 642.17L1960.98 677.47C1954.74 678.278 1948.45 676.499 1943.56 672.547L1654.48 438.853C1650.47 435.615 1647.67 431.126 1646.52 426.105L1572.56 103.39C1570.69 95.253 1573.38 86.7448 1579.58 81.1592L1763.13 -84.1063C1769.33 -89.6919 1778.08 -91.4779 1785.97 -88.7728L2099.19 18.5173C2104.06 20.1865 2108.23 23.4433 2111.04 27.7657L2313.23 339.694C2316.65 344.969 2317.76 351.413 2316.31 357.529L2252.73 624.685Z" stroke="url(#paint23_linear_164_219)" stroke-width="4"/>
</g>
<mask id="mask1_164_219" style="mask-type:alpha" maskUnits="userSpaceOnUse" x="0" y="0" width="640" height="299">
<rect width="640" height="299" transform="matrix(-1 0 0 1 640 0)" fill="black"/>
</mask>
<g mask="url(#mask1_164_219)">
<path opacity="0.0144928" d="M169.302 682.043C179.292 684.343 189.597 679.755 194.572 670.793L352.606 386.108C355.548 380.808 356.278 374.56 354.639 368.724L228.586 -80.0062C227.297 -84.5958 224.613 -88.6713 220.907 -91.6692L-96.4945 -348.373C-103.215 -353.809 -112.416 -355.017 -120.313 -351.502L-379.711 -236.01C-387.608 -232.494 -392.866 -224.848 -393.324 -216.216L-414.938 191.427C-415.191 196.188 -413.958 200.909 -411.41 204.938L-162.284 598.873C-159.044 603.997 -153.912 607.634 -148.005 608.994L169.302 682.043Z" stroke="url(#paint24_linear_164_219)" stroke-width="4"/>
<path opacity="0.0289855" d="M119.506 693.843C129.339 696.639 139.838 692.609 145.275 683.951L317.191 410.181C320.419 405.04 321.484 398.831 320.153 392.908L218.914 -57.6749C217.866 -62.3403 215.389 -66.5628 211.83 -69.7554L-89.4531 -339.962C-95.8797 -345.726 -104.993 -347.406 -113.052 -344.312L-376.562 -243.16C-384.621 -240.066 -390.27 -232.72 -391.189 -224.136L-434.282 178.264C-434.791 183.018 -433.806 187.813 -431.463 191.981L-205.2 594.572C-202.226 599.864 -197.28 603.766 -191.441 605.427L119.506 693.843Z" stroke="url(#paint25_linear_164_219)" stroke-width="4"/>
<path opacity="0.0434783" d="M69.6904 704.043C79.3431 707.325 90.0047 703.861 95.8846 695.532L280.976 433.343C284.483 428.376 285.88 422.223 284.862 416.228L208.281 -34.8497C207.478 -39.5782 205.218 -43.9375 201.815 -47.3176L-82.8123 -330.051C-88.9287 -336.127 -97.9294 -338.272 -106.129 -335.608L-372.966 -248.907C-381.165 -246.243 -387.186 -239.217 -388.563 -230.707L-452.645 165.329C-453.411 170.064 -452.678 174.919 -450.548 179.217L-247.366 589.16C-244.666 594.607 -239.919 598.764 -234.163 600.722L69.6904 704.043Z" stroke="url(#paint26_linear_164_219)" stroke-width="4"/>
<path opacity="0.057971" d="M19.9436 712.657C29.3915 716.414 40.1852 713.522 46.4887 705.545L244.017 455.558C247.792 450.781 249.519 444.701 248.818 438.653L196.668 -11.5857C196.114 -16.3648 194.076 -20.85 190.84 -24.41L-76.6515 -318.676C-82.4427 -325.047 -91.3072 -327.65 -99.6236 -325.422L-369.003 -253.242C-377.319 -251.013 -383.694 -244.327 -385.524 -235.914L-470.045 152.674C-471.068 157.375 -470.59 162.278 -468.68 166.694L-288.725 582.687C-286.307 588.275 -281.772 592.677 -276.114 594.927L19.9436 712.657Z" stroke="url(#paint27_linear_164_219)" stroke-width="4"/>
<path opacity="0.0724638" d="M-29.6483 719.706C-20.4287 723.925 -9.53395 721.609 -2.82752 714.005L206.371 476.798C210.405 472.224 212.457 466.236 212.076 460.149L184.056 12.0604C183.755 7.2437 181.946 2.64376 178.886 -1.08817L-71.0476 -305.876C-76.4995 -312.525 -85.2044 -315.577 -93.6146 -313.79L-364.752 -256.158C-373.162 -254.37 -379.873 -248.041 -382.149 -239.75L-486.506 140.345C-487.784 144.999 -487.565 149.937 -485.881 154.46L-329.225 575.206C-327.097 580.921 -322.787 585.557 -317.241 588.095L-29.6483 719.706Z" stroke="url(#paint28_linear_164_219)" stroke-width="4"/>
<path opacity="0.0869565" d="M-79.0007 725.211C-70.0322 729.878 -59.0673 728.142 -51.98 720.931L168.095 497.033C172.377 492.677 174.75 486.798 174.691 480.69L170.432 36.0318C170.385 31.1905 168.812 26.4873 165.937 22.5921L-66.0745 -291.696C-71.1739 -298.604 -79.6963 -302.096 -88.1767 -300.753L-360.293 -257.654C-368.774 -256.31 -375.8 -250.356 -378.515 -242.21L-502.051 128.391C-503.582 132.984 -503.624 137.943 -502.172 142.562L-368.816 566.773C-366.985 572.6 -362.911 577.459 -357.493 580.278L-79.0007 725.211Z" stroke="url(#paint29_linear_164_219)" stroke-width="4"/>
<path opacity="0.101449" d="M-128.032 729.202C-119.336 734.303 -108.332 733.146 -100.887 726.349L129.249 516.242C133.766 512.118 136.455 506.363 136.72 500.252L155.784 60.2716C155.994 55.4191 154.663 50.6244 151.981 46.575L-61.8035 -276.181C-66.5381 -283.329 -74.8558 -287.25 -83.3827 -286.354L-355.706 -257.732C-364.233 -256.835 -371.554 -251.271 -374.699 -243.294L-516.706 116.857C-518.488 121.375 -518.794 126.342 -517.579 131.045L-407.454 557.447C-405.924 563.37 -402.098 568.439 -396.822 571.534L-128.032 729.202Z" stroke="url(#paint30_linear_164_219)" stroke-width="4"/>
<path opacity="0.115942" d="M-176.66 731.71C-168.259 737.228 -157.247 736.651 -149.468 730.285L89.8919 534.402C94.6335 530.522 97.6308 524.91 98.2192 518.812L140.106 84.7215C140.574 79.8709 139.489 74.997 137.008 70.8028L-58.302 -259.384C-62.6608 -266.753 -70.7519 -271.091 -79.3018 -270.643L-351.068 -256.4C-359.617 -255.952 -367.211 -250.792 -370.776 -243.008L-530.502 105.786C-532.531 110.216 -533.1 115.177 -532.128 119.952L-445.096 547.286C-443.873 553.289 -440.305 558.557 -435.184 561.92L-176.66 731.71Z" stroke="url(#paint31_linear_164_219)" stroke-width="4"/>
<path opacity="0.130435" d="M-224.81 732.773C-216.722 738.691 -205.733 738.691 -197.645 732.773L50.0848 551.498C55.0371 547.874 58.3359 542.422 59.2475 536.353L123.392 109.324C124.118 104.489 123.285 99.5484 121.013 95.2191L-55.6344 -241.359C-59.6073 -248.929 -67.4509 -253.67 -76 -253.67L-346.455 -253.67C-355.004 -253.67 -362.848 -248.929 -366.821 -241.359L-543.468 95.2191C-545.74 99.5484 -546.573 104.489 -545.847 109.324L-481.703 536.353C-480.791 542.422 -477.492 547.874 -472.54 551.498L-224.81 732.773Z" stroke="url(#paint32_linear_164_219)" stroke-width="4"/>
<path opacity="0.144928" d="M-272.405 732.431C-264.65 738.731 -253.715 739.304 -245.344 733.849L9.88814 567.515C15.0376 564.159 18.6295 558.882 19.8627 552.861L105.642 134.022C106.626 129.216 106.048 124.221 103.992 119.767L-53.8614 -222.163C-57.4393 -229.913 -65.0153 -235.044 -73.5398 -235.491L-341.944 -249.558C-350.468 -250.004 -358.539 -245.693 -362.908 -238.359L-555.638 85.1976C-558.148 89.4123 -559.245 94.3194 -558.769 99.202L-517.24 524.712C-516.643 530.83 -513.622 536.453 -508.852 540.329L-272.405 732.431Z" stroke="url(#paint33_linear_164_219)" stroke-width="4"/>
<path opacity="0.15942" d="M-319.373 730.728C-311.97 737.392 -301.118 738.532 -292.491 733.554L-30.6371 582.444C-25.3049 579.367 -21.4288 574.281 -19.8764 568.323L86.857 158.759C88.0984 153.995 87.7787 148.959 85.945 144.391L-53.0399 -201.857C-56.215 -209.766 -63.5038 -215.272 -71.9804 -216.163L-337.608 -244.081C-346.084 -244.972 -354.359 -241.103 -359.109 -234.026L-567.045 75.7586C-569.789 79.8458 -571.149 84.7055 -570.925 89.6229L-551.677 512.429C-551.397 518.579 -548.663 524.36 -544.087 528.478L-319.373 730.728Z" stroke="url(#paint34_linear_164_219)" stroke-width="4"/>
<path opacity="0.173913" d="M-365.647 727.713C-358.611 734.72 -347.873 736.421 -339.017 731.931L-71.4303 596.277C-65.9303 593.489 -61.7801 588.609 -59.9116 582.732L67.0423 183.476C68.5392 178.768 68.4807 173.704 66.8756 169.032L-53.2234 -180.504C-55.9887 -188.552 -62.9719 -194.416 -71.3772 -195.747L-333.519 -237.266C-341.924 -238.597 -350.378 -235.179 -355.495 -228.379L-577.728 66.9371C-580.698 70.8841 -582.319 75.6825 -582.35 80.622L-584.987 499.569C-585.026 505.735 -582.587 511.659 -578.218 516.01L-365.647 727.713Z" stroke="url(#paint35_linear_164_219)" stroke-width="4"/>
<path opacity="0.188406" d="M-411.16 723.437C-404.509 730.767 -393.913 733.019 -384.856 729.028L-112.431 609.012C-106.778 606.522 -102.365 601.862 -100.185 596.084L46.2058 208.118C47.9558 203.48 48.1606 198.401 46.7895 193.637L-54.461 -158.17C-56.8109 -166.335 -63.4709 -172.54 -71.7818 -174.306L-329.748 -229.139C-338.059 -230.905 -346.667 -227.946 -352.135 -221.443L-587.725 58.767C-590.915 62.5613 -592.793 67.2847 -593.081 72.2334L-617.147 486.2C-617.505 492.366 -615.368 498.417 -611.217 502.991L-411.16 723.437Z" stroke="url(#paint36_linear_164_219)" stroke-width="4"/>
<path opacity="0.202899" d="M-455.851 717.955C-449.598 725.586 -439.174 728.379 -429.943 724.897L-153.578 620.647C-147.789 618.464 -143.124 614.04 -140.637 608.375L24.3594 232.63C26.3596 228.075 26.829 222.994 25.6971 218.15L-56.7969 -134.923C-58.7268 -143.184 -65.047 -149.711 -73.2408 -151.907L-326.362 -219.73C-334.556 -221.926 -343.293 -219.433 -349.095 -213.244L-597.073 51.2791C-600.475 54.9086 -602.609 59.5434 -603.155 64.4882L-648.136 472.391C-648.815 478.54 -646.986 484.704 -643.065 489.49L-455.851 717.955Z" stroke="url(#paint37_linear_164_219)" stroke-width="4"/>
<path opacity="0.217391" d="M-499.661 711.326C-493.82 719.236 -483.596 722.558 -474.22 719.592L-194.812 631.187C-188.904 629.318 -183.999 625.143 -181.211 619.608L1.51648 256.958C3.76318 252.499 4.49787 247.43 3.60952 242.517L-60.2727 -110.833C-61.7794 -119.167 -67.744 -125.998 -75.7984 -128.615L-323.427 -209.075C-331.481 -211.692 -340.322 -209.671 -346.44 -203.814L-605.816 44.5027C-609.422 47.9555 -611.807 52.4882 -612.611 57.4162L-677.942 458.211C-678.939 464.327 -677.425 470.588 -673.744 475.573L-499.661 711.326Z" stroke="url(#paint38_linear_164_219)" stroke-width="4"/>
<path opacity="0.231884" d="M-542.535 703.608C-537.118 711.775 -527.121 715.613 -517.631 713.168L-236.075 640.638C-230.063 639.089 -224.933 635.176 -221.849 629.788L-22.3057 281.048C-19.8168 276.698 -18.8168 271.655 -19.4576 266.684L-64.9246 -85.9716C-66.0057 -94.3569 -71.6002 -101.473 -79.4933 -104.503L-321.006 -197.211C-328.899 -200.241 -337.818 -198.696 -344.233 -193.188L-613.994 38.4633C-617.796 41.7281 -620.428 46.1455 -621.489 51.0433L-706.551 443.728C-707.866 449.796 -706.671 456.137 -703.24 461.31L-542.535 703.608Z" stroke="url(#paint39_linear_164_219)" stroke-width="4"/>
<path opacity="0.246377" d="M-584.424 694.866C-579.442 703.267 -569.698 707.605 -560.121 705.686L-277.307 649.009C-271.21 647.787 -265.867 644.148 -262.497 638.921L-47.0871 304.848C-44.3612 300.621 -43.0964 295.616 -43.4864 290.601L-70.7847 -60.4119C-71.4391 -68.8267 -76.65 -76.2072 -84.3605 -79.6401L-319.159 -184.179C-326.87 -187.612 -335.841 -186.546 -342.532 -181.402L-621.652 33.1851C-625.64 36.251 -628.513 40.5397 -629.83 45.3943L-733.958 429.014C-735.587 435.015 -734.716 441.421 -731.544 446.77L-584.424 694.866Z" stroke="url(#paint40_linear_164_219)" stroke-width="4"/>
<path opacity="0.26087" d="M-625.28 685.165C-620.743 693.776 -611.277 698.599 -601.644 697.208L-318.453 656.313C-312.287 655.423 -306.746 652.069 -303.098 647.02L-72.8052 328.308C-69.8479 324.216 -68.3196 319.263 -68.4561 314.216L-77.8805 -34.2283C-78.1083 -42.6507 -82.9232 -50.2744 -90.4303 -54.0995L-317.943 -170.023C-325.451 -173.848 -334.448 -173.262 -341.396 -168.496L-628.833 28.6897C-632.997 31.5461 -636.105 35.6933 -637.678 40.4915L-760.158 414.136C-762.099 420.056 -761.555 426.509 -758.651 432.021L-625.28 685.165Z" stroke="url(#paint41_linear_164_219)" stroke-width="4"/>
<path opacity="0.275362" d="M-665.061 674.572C-660.978 683.369 -651.815 688.659 -642.154 687.797L-359.456 662.565C-353.24 662.01 -347.516 658.954 -343.598 654.096L-99.435 351.379C-96.2527 347.433 -94.4629 342.547 -94.3438 337.48L-86.2358 -7.49654C-86.0382 -15.9047 -90.4458 -23.7503 -97.7295 -27.9555L-317.414 -154.79C-324.698 -158.996 -333.696 -158.89 -340.879 -154.515L-635.583 24.995C-639.912 27.6319 -643.249 31.6251 -645.074 36.3537L-785.154 399.164C-787.401 404.986 -787.187 411.471 -784.559 417.132L-665.061 674.572Z" stroke="url(#paint42_linear_164_219)" stroke-width="4"/>
<path opacity="0.289855" d="M-703.729 663.156C-700.106 672.115 -691.269 677.853 -681.611 677.519L-400.262 667.784C-394.014 667.568 -388.123 664.818 -383.945 660.167L-126.949 374.013C-123.548 370.227 -121.5 365.42 -121.123 360.345L-95.8689 19.7076C-95.2482 11.3354 -99.2385 3.2901 -106.279 -1.28225L-317.622 -138.53C-324.663 -143.102 -333.635 -143.475 -341.031 -139.503L-641.947 22.1182C-646.431 24.526 -649.989 28.3527 -652.064 32.9989L-808.948 384.166C-811.498 389.875 -811.615 396.375 -809.271 402.171L-703.729 663.156Z" stroke="url(#paint43_linear_164_219)" stroke-width="4"/>
<path opacity="0.304348" d="M-741.249 650.988C-738.093 660.084 -729.604 666.251 -719.978 666.443L-440.818 671.992C-434.556 672.116 -428.514 669.682 -424.088 665.25L-155.315 396.166C-151.705 392.551 -149.4 387.837 -148.766 382.767L-106.794 47.3079C-105.754 38.9931 -109.318 30.7705 -116.097 25.845L-318.614 -121.292C-325.394 -126.218 -334.315 -127.067 -341.901 -123.508L-647.972 20.0726C-652.597 22.2425 -656.369 25.8907 -658.691 30.4417L-831.551 369.211C-834.397 374.79 -834.846 381.289 -832.792 387.206L-741.249 650.988Z" stroke="url(#paint44_linear_164_219)" stroke-width="4"/>
<path opacity="0.318841" d="M-777.593 638.14C-774.907 647.349 -766.788 653.924 -757.222 654.636L-481.073 675.212C-474.816 675.678 -468.639 673.567 -463.976 669.369L-184.503 417.793C-180.691 414.361 -178.135 409.752 -177.242 404.701L-119.021 75.2275C-117.566 66.9913 -120.696 58.6143 -127.196 53.3508L-320.437 -103.133C-326.937 -108.396 -335.782 -109.716 -343.535 -106.58L-653.704 18.8696C-658.46 20.793 -662.436 24.2511 -665 28.694L-852.974 354.365C-856.11 359.8 -856.891 366.28 -855.134 372.303L-777.593 638.14Z" stroke="url(#paint45_linear_164_219)" stroke-width="4"/>
<path opacity="0.333333" d="M-812.735 624.685C-810.522 633.982 -802.792 640.942 -793.316 642.17L-520.977 677.47C-514.743 678.278 -508.45 676.499 -503.562 672.547L-214.478 438.853C-210.472 435.615 -207.669 431.126 -206.518 426.105L-132.556 103.39C-130.691 95.253 -133.381 86.7448 -139.584 81.1592L-323.13 -84.1063C-329.334 -89.6919 -338.077 -91.4779 -345.974 -88.7728L-659.19 18.5173C-664.063 20.1865 -668.235 23.4433 -671.036 27.7657L-873.233 339.694C-876.652 344.969 -877.763 351.413 -876.308 357.529L-812.735 624.685Z" stroke="url(#paint46_linear_164_219)" stroke-width="4"/>
</g>
<defs>
<linearGradient id="paint0_linear_164_219" x1="5.36442e-06" y1="149.5" x2="1440" y2="149.5" gradientUnits="userSpaceOnUse">
<stop stop-color="#FF638A"/>
<stop offset="1" stop-color="#D02C34"/>
</linearGradient>
<linearGradient id="paint1_linear_164_219" x1="1252.81" y1="688.213" x2="1730.93" y2="-385.648" gradientUnits="userSpaceOnUse">
<stop stop-color="white"/>
<stop offset="1" stop-color="white"/>
</linearGradient>
<linearGradient id="paint2_linear_164_219" x1="1303" y1="700.895" x2="1720.54" y2="-386.831" gradientUnits="userSpaceOnUse">
<stop stop-color="white"/>
<stop offset="1" stop-color="white"/>
</linearGradient>
<linearGradient id="paint3_linear_164_219" x1="1353.26" y1="711.953" x2="1710.09" y2="-386.268" gradientUnits="userSpaceOnUse">
<stop stop-color="white"/>
<stop offset="1" stop-color="white"/>
</linearGradient>
<linearGradient id="paint4_linear_164_219" x1="1403.49" y1="721.398" x2="1699.67" y2="-383.971" gradientUnits="userSpaceOnUse">
<stop stop-color="white"/>
<stop offset="1" stop-color="white"/>
</linearGradient>
<linearGradient id="paint5_linear_164_219" x1="1453.6" y1="729.247" x2="1689.37" y2="-379.96" gradientUnits="userSpaceOnUse">
<stop stop-color="white"/>
<stop offset="1" stop-color="white"/>
</linearGradient>
<linearGradient id="paint6_linear_164_219" x1="1503.52" y1="735.523" x2="1679.29" y2="-374.256" gradientUnits="userSpaceOnUse">
<stop stop-color="white"/>
<stop offset="1" stop-color="white"/>
</linearGradient>
<linearGradient id="paint7_linear_164_219" x1="1553.15" y1="740.251" x2="1669.51" y2="-366.888" gradientUnits="userSpaceOnUse">
<stop stop-color="white"/>
<stop offset="1" stop-color="white"/>
</linearGradient>
<linearGradient id="paint8_linear_164_219" x1="1602.41" y1="743.461" x2="1660.13" y2="-357.89" gradientUnits="userSpaceOnUse">
<stop stop-color="white"/>
<stop offset="1" stop-color="white"/>
</linearGradient>
<linearGradient id="paint9_linear_164_219" x1="1651.23" y1="745.19" x2="1651.23" y2="-347.298" gradientUnits="userSpaceOnUse">
<stop stop-color="white"/>
<stop offset="1" stop-color="white"/>
</linearGradient>
<linearGradient id="paint10_linear_164_219" x1="1699.52" y1="745.475" x2="1642.89" y2="-335.154" gradientUnits="userSpaceOnUse">
<stop stop-color="white"/>
<stop offset="1" stop-color="white"/>
</linearGradient>
<linearGradient id="paint11_linear_164_219" x1="1747.22" y1="744.361" x2="1635.19" y2="-321.506" gradientUnits="userSpaceOnUse">
<stop stop-color="white"/>
<stop offset="1" stop-color="white"/>
</linearGradient>
<linearGradient id="paint12_linear_164_219" x1="1794.24" y1="741.892" x2="1628.21" y2="-306.403" gradientUnits="userSpaceOnUse">
<stop stop-color="white"/>
<stop offset="1" stop-color="white"/>
</linearGradient>
<linearGradient id="paint13_linear_164_219" x1="1840.53" y1="738.122" x2="1622.02" y2="-289.899" gradientUnits="userSpaceOnUse">
<stop stop-color="white"/>
<stop offset="1" stop-color="white"/>
</linearGradient>
<linearGradient id="paint14_linear_164_219" x1="1886.03" y1="733.101" x2="1616.69" y2="-272.053" gradientUnits="userSpaceOnUse">
<stop stop-color="white"/>
<stop offset="1" stop-color="white"/>
</linearGradient>
<linearGradient id="paint15_linear_164_219" x1="1930.65" y1="726.889" x2="1612.29" y2="-252.925" gradientUnits="userSpaceOnUse">
<stop stop-color="white"/>
<stop offset="1" stop-color="white"/>
</linearGradient>
<linearGradient id="paint16_linear_164_219" x1="1974.37" y1="719.545" x2="1608.88" y2="-232.579" gradientUnits="userSpaceOnUse">
<stop stop-color="white"/>
<stop offset="1" stop-color="white"/>
</linearGradient>
<linearGradient id="paint17_linear_164_219" x1="2017.1" y1="711.13" x2="1606.51" y2="-211.083" gradientUnits="userSpaceOnUse">
<stop stop-color="white"/>
<stop offset="1" stop-color="white"/>
</linearGradient>
<linearGradient id="paint18_linear_164_219" x1="2058.82" y1="701.71" x2="1605.24" y2="-188.506" gradientUnits="userSpaceOnUse">
<stop stop-color="white"/>
<stop offset="1" stop-color="white"/>
</linearGradient>
<linearGradient id="paint19_linear_164_219" x1="2099.48" y1="691.351" x2="1605.11" y2="-164.921" gradientUnits="userSpaceOnUse">
<stop stop-color="white"/>
<stop offset="1" stop-color="white"/>
</linearGradient>
<linearGradient id="paint20_linear_164_219" x1="2139.02" y1="680.123" x2="1606.17" y2="-140.401" gradientUnits="userSpaceOnUse">
<stop stop-color="white"/>
<stop offset="1" stop-color="white"/>
</linearGradient>
<linearGradient id="paint21_linear_164_219" x1="2177.43" y1="668.096" x2="1608.46" y2="-115.022" gradientUnits="userSpaceOnUse">
<stop stop-color="white"/>
<stop offset="1" stop-color="white"/>
</linearGradient>
<linearGradient id="paint22_linear_164_219" x1="2214.66" y1="655.343" x2="1612.01" y2="-88.862" gradientUnits="userSpaceOnUse">
<stop stop-color="white"/>
<stop offset="1" stop-color="white"/>
</linearGradient>
<linearGradient id="paint23_linear_164_219" x1="2250.69" y1="641.935" x2="1616.86" y2="-61.9991" gradientUnits="userSpaceOnUse">
<stop stop-color="white"/>
<stop offset="1" stop-color="white"/>
</linearGradient>
<linearGradient id="paint24_linear_164_219" x1="187.189" y1="688.213" x2="-290.925" y2="-385.648" gradientUnits="userSpaceOnUse">
<stop stop-color="white"/>
<stop offset="1" stop-color="white"/>
</linearGradient>
<linearGradient id="paint25_linear_164_219" x1="136.996" y1="700.895" x2="-280.543" y2="-386.831" gradientUnits="userSpaceOnUse">
<stop stop-color="white"/>
<stop offset="1" stop-color="white"/>
</linearGradient>
<linearGradient id="paint26_linear_164_219" x1="86.7404" y1="711.953" x2="-270.093" y2="-386.268" gradientUnits="userSpaceOnUse">
<stop stop-color="white"/>
<stop offset="1" stop-color="white"/>
</linearGradient>
<linearGradient id="paint27_linear_164_219" x1="36.5111" y1="721.398" x2="-259.672" y2="-383.971" gradientUnits="userSpaceOnUse">
<stop stop-color="white"/>
<stop offset="1" stop-color="white"/>
</linearGradient>
<linearGradient id="paint28_linear_164_219" x1="-13.6038" y1="729.247" x2="-249.373" y2="-379.96" gradientUnits="userSpaceOnUse">
<stop stop-color="white"/>
<stop offset="1" stop-color="white"/>
</linearGradient>
<linearGradient id="paint29_linear_164_219" x1="-63.5182" y1="735.523" x2="-239.29" y2="-374.256" gradientUnits="userSpaceOnUse">
<stop stop-color="white"/>
<stop offset="1" stop-color="white"/>
</linearGradient>
<linearGradient id="paint30_linear_164_219" x1="-113.148" y1="740.251" x2="-229.513" y2="-366.888" gradientUnits="userSpaceOnUse">
<stop stop-color="white"/>
<stop offset="1" stop-color="white"/>
</linearGradient>
<linearGradient id="paint31_linear_164_219" x1="-162.411" y1="743.461" x2="-220.13" y2="-357.89" gradientUnits="userSpaceOnUse">
<stop stop-color="white"/>
<stop offset="1" stop-color="white"/>
</linearGradient>
<linearGradient id="paint32_linear_164_219" x1="-211.228" y1="745.19" x2="-211.228" y2="-347.298" gradientUnits="userSpaceOnUse">
<stop stop-color="white"/>
<stop offset="1" stop-color="white"/>
</linearGradient>
<linearGradient id="paint33_linear_164_219" x1="-259.521" y1="745.475" x2="-202.887" y2="-335.154" gradientUnits="userSpaceOnUse">
<stop stop-color="white"/>
<stop offset="1" stop-color="white"/>
</linearGradient>
<linearGradient id="paint34_linear_164_219" x1="-307.216" y1="744.361" x2="-195.189" y2="-321.506" gradientUnits="userSpaceOnUse">
<stop stop-color="white"/>
<stop offset="1" stop-color="white"/>
</linearGradient>
<linearGradient id="paint35_linear_164_219" x1="-354.244" y1="741.892" x2="-188.21" y2="-306.403" gradientUnits="userSpaceOnUse">
<stop stop-color="white"/>
<stop offset="1" stop-color="white"/>
</linearGradient>
<linearGradient id="paint36_linear_164_219" x1="-400.535" y1="738.122" x2="-182.022" y2="-289.899" gradientUnits="userSpaceOnUse">
<stop stop-color="white"/>
<stop offset="1" stop-color="white"/>
</linearGradient>
<linearGradient id="paint37_linear_164_219" x1="-446.025" y1="733.101" x2="-176.695" y2="-272.053" gradientUnits="userSpaceOnUse">
<stop stop-color="white"/>
<stop offset="1" stop-color="white"/>
</linearGradient>
<linearGradient id="paint38_linear_164_219" x1="-490.655" y1="726.889" x2="-172.294" y2="-252.925" gradientUnits="userSpaceOnUse">
<stop stop-color="white"/>
<stop offset="1" stop-color="white"/>
</linearGradient>
<linearGradient id="paint39_linear_164_219" x1="-534.366" y1="719.545" x2="-168.879" y2="-232.579" gradientUnits="userSpaceOnUse">
<stop stop-color="white"/>
<stop offset="1" stop-color="white"/>
</linearGradient>
<linearGradient id="paint40_linear_164_219" x1="-577.105" y1="711.13" x2="-166.509" y2="-211.083" gradientUnits="userSpaceOnUse">
<stop stop-color="white"/>
<stop offset="1" stop-color="white"/>
</linearGradient>
<linearGradient id="paint41_linear_164_219" x1="-618.824" y1="701.71" x2="-165.236" y2="-188.506" gradientUnits="userSpaceOnUse">
<stop stop-color="white"/>
<stop offset="1" stop-color="white"/>
</linearGradient>
<linearGradient id="paint42_linear_164_219" x1="-659.478" y1="691.351" x2="-165.109" y2="-164.921" gradientUnits="userSpaceOnUse">
<stop stop-color="white"/>
<stop offset="1" stop-color="white"/>
</linearGradient>
<linearGradient id="paint43_linear_164_219" x1="-699.025" y1="680.123" x2="-166.171" y2="-140.401" gradientUnits="userSpaceOnUse">
<stop stop-color="white"/>
<stop offset="1" stop-color="white"/>
</linearGradient>
<linearGradient id="paint44_linear_164_219" x1="-737.429" y1="668.096" x2="-168.46" y2="-115.022" gradientUnits="userSpaceOnUse">
<stop stop-color="white"/>
<stop offset="1" stop-color="white"/>
</linearGradient>
<linearGradient id="paint45_linear_164_219" x1="-774.659" y1="655.343" x2="-172.014" y2="-88.862" gradientUnits="userSpaceOnUse">
<stop stop-color="white"/>
<stop offset="1" stop-color="white"/>
</linearGradient>
<linearGradient id="paint46_linear_164_219" x1="-810.686" y1="641.935" x2="-176.86" y2="-61.9991" gradientUnits="userSpaceOnUse">
<stop stop-color="white"/>
<stop offset="1" stop-color="white"/>
</linearGradient>
</defs>
</svg>
