<svg width="28" height="28" viewBox="0 0 28 28" fill="none" xmlns="http://www.w3.org/2000/svg">
<g id="Iconly/Light-Outline/Arrow - Right">
<g id="Arrow - Right">
<path id="Stroke 1" d="M4.66669 13.6799C4.66669 13.237 4.99587 12.8709 5.42295 12.8129L5.54169 12.8049L23.0417 12.8049C23.5249 12.8049 23.9167 13.1967 23.9167 13.6799C23.9167 14.1229 23.5875 14.489 23.1604 14.5469L23.0417 14.5549L5.54169 14.5549C5.05844 14.5549 4.66669 14.1632 4.66669 13.6799Z" fill="#D02C34"/>
<path id="Stroke 3" d="M15.3662 7.27162C15.0238 6.93065 15.0226 6.37663 15.3635 6.03419C15.6735 5.72288 16.1596 5.69359 16.5026 5.94701L16.601 6.03152L23.6593 13.0595C23.9715 13.3704 23.9999 13.8582 23.7445 14.2013L23.6594 14.2996L16.601 21.3287C16.2586 21.6697 15.7046 21.6686 15.3636 21.3262C15.0536 21.0149 15.0263 20.5287 15.2812 20.1867L15.3661 20.0887L21.8015 13.6792L15.3662 7.27162Z" fill="#D02C34"/>
</g>
</g>
</svg>
