<svg width="28" height="28" viewBox="0 0 28 28" fill="none" xmlns="http://www.w3.org/2000/svg">
<g id="Iconly/Light-Outline/Arrow - Right">
<g id="Arrow - Right">
<path id="Stroke 1" d="M23.3333 13.6799C23.3333 13.237 23.0041 12.8709 22.577 12.8129L22.4583 12.8049L4.95831 12.8049C4.47506 12.8049 4.08331 13.1967 4.08331 13.6799C4.08331 14.1229 4.41249 14.489 4.83958 14.5469L4.95831 14.5549L22.4583 14.5549C22.9416 14.5549 23.3333 14.1632 23.3333 13.6799Z" fill="#D02C34"/>
<path id="Stroke 3" d="M12.6338 7.27162C12.9762 6.93065 12.9774 6.37663 12.6365 6.03419C12.3265 5.72288 11.8404 5.69359 11.4974 5.94701L11.399 6.03152L4.3407 13.0595C4.02846 13.3704 4.00005 13.8582 4.2555 14.2013L4.34065 14.2996L11.399 21.3287C11.7414 21.6697 12.2954 21.6686 12.6364 21.3262C12.9464 21.0149 12.9737 20.5287 12.7188 20.1867L12.6339 20.0887L6.19849 13.6792L12.6338 7.27162Z" fill="#D02C34"/>
</g>
</g>
</svg>
