<svg width="18" height="18" viewBox="0 0 18 18" fill="none" xmlns="http://www.w3.org/2000/svg">
<g id="Iconly/Light-Outline/Search">
<g id="Search">
<g id="Group 3">
<mask id="mask0_1_748" style="mask-type:alpha" maskUnits="userSpaceOnUse" x="1" y="1" width="16" height="16">
<path id="Clip 2" fill-rule="evenodd" clip-rule="evenodd" d="M1.5 1.5H16.1076V16.1077H1.5V1.5Z" fill="white"/>
</mask>
<g mask="url(#mask0_1_748)">
<path id="Fill 1" fill-rule="evenodd" clip-rule="evenodd" d="M8.8041 2.625C5.39685 2.625 2.62485 5.39625 2.62485 8.8035C2.62485 12.2108 5.39685 14.9827 8.8041 14.9827C12.2106 14.9827 14.9826 12.2108 14.9826 8.8035C14.9826 5.39625 12.2106 2.625 8.8041 2.625ZM8.8041 16.1077C4.7766 16.1077 1.49985 12.831 1.49985 8.8035C1.49985 4.776 4.7766 1.5 8.8041 1.5C12.8316 1.5 16.1076 4.776 16.1076 8.8035C16.1076 12.831 12.8316 16.1077 8.8041 16.1077Z" fill="white"/>
</g>
</g>
<g id="Group 6">
<mask id="mask1_1_748" style="mask-type:alpha" maskUnits="userSpaceOnUse" x="12" y="13" width="5" height="5">
<path id="Clip 5" fill-rule="evenodd" clip-rule="evenodd" d="M12.93 13.2803H16.698V17.0413H12.93V13.2803Z" fill="white"/>
</mask>
<g mask="url(#mask1_1_748)">
<path id="Fill 4" fill-rule="evenodd" clip-rule="evenodd" d="M16.1357 17.0413C15.9924 17.0413 15.8484 16.9866 15.7382 16.8771L13.0952 14.2416C12.8754 14.0218 12.8747 13.6656 13.0944 13.4458C13.3134 13.2246 13.6697 13.2261 13.8902 13.4443L16.5332 16.0806C16.7529 16.3003 16.7537 16.6558 16.5339 16.8756C16.4244 16.9866 16.2796 17.0413 16.1357 17.0413Z" fill="white"/>
</g>
</g>
</g>
</g>
</svg>
