<svg xmlns="http://www.w3.org/2000/svg" width="19.25" height="15.807" viewBox="0 0 19.25 15.807">
  <g id="Iconly_Light-Outline_Arrow_-_Right" data-name="Iconly/Light-Outline/Arrow - Right" transform="translate(-4.667 -5.777)">
    <g id="Arrow_-_Right" data-name="Arrow - Right">
      <path id="Stroke_1" data-name="Stroke 1" d="M4.667,13.68a.875.875,0,0,1,.756-.867l.119-.008h17.5a.875.875,0,0,1,.119,1.742l-.119.008H5.542A.875.875,0,0,1,4.667,13.68Z" fill="#fff"/>
      <path id="Stroke_3" data-name="Stroke 3" d="M15.366,7.272A.875.875,0,0,1,16.5,5.947l.1.085,7.058,7.028a.875.875,0,0,1,.085,1.142l-.085.1L16.6,21.329a.875.875,0,0,1-1.32-1.142l.085-.1L21.8,13.679Z" fill="#fff"/>
    </g>
  </g>
</svg>
